<svg xmlns="http://www.w3.org/2000/svg" width="35" height="63" viewBox="0 0 35 63"><defs><clipPath id="sg78a"><path fill="#fff" d="M17.644.54c9.473 0 17.153 7.68 17.153 17.154V45.05c0 9.474-7.68 17.154-17.153 17.154C8.17 62.204.49 54.524.49 45.05V17.694C.49 8.22 8.17.541 17.644.541z"/></clipPath></defs><g><g><path fill="#fff" d="M17.644.54c9.473 0 17.153 7.68 17.153 17.154V45.05c0 9.474-7.68 17.154-17.153 17.154C8.17 62.204.49 54.524.49 45.05V17.694C.49 8.22 8.17.541 17.644.541z"/><path fill="none" stroke="#41636d" stroke-linecap="round" stroke-linejoin="round" stroke-miterlimit="20" stroke-width="4" d="M17.644.54c9.473 0 17.153 7.68 17.153 17.154V45.05c0 9.474-7.68 17.154-17.153 17.154C8.17 62.204.49 54.524.49 45.05V17.694C.49 8.22 8.17.541 17.644.541z" clip-path="url(&quot;#sg78a&quot;)"/></g></g></svg>